<svg width="67" height="67" viewBox="0 0 67 67" fill="none" xmlns="http://www.w3.org/2000/svg">
<rect x="2" y="2" width="63" height="63" rx="31.5" fill="#60A5FA"/>
<path d="M37.775 41.4167C37.6694 41.4167 37.5871 41.3868 37.528 41.3272C37.4689 41.2676 37.4259 41.1918 37.399 41.1L37.2208 40.2292C37.0625 40.1632 36.9139 40.0906 36.7751 40.0115C36.6363 39.9323 36.5012 39.8399 36.3698 39.7344L35.5385 40.0313C35.4462 40.0576 35.357 40.0542 35.271 40.021C35.1849 39.9877 35.1158 39.9318 35.0635 39.8531L34.5885 39.0417C34.5358 38.9625 34.5194 38.8767 34.5395 38.7844C34.5595 38.692 34.6023 38.6129 34.6677 38.5469L35.3208 37.9729C35.2944 37.775 35.2813 37.6069 35.2813 37.4686C35.2813 37.3304 35.2944 37.162 35.3208 36.9635L34.6677 36.3896C34.6017 36.3236 34.559 36.2444 34.5395 36.1521C34.5199 36.0597 34.5363 35.974 34.5885 35.8948L35.0635 35.0833C35.1163 35.0042 35.1857 34.9482 35.2718 34.9155C35.3578 34.8828 35.4467 34.8794 35.5385 34.9052L36.3698 35.2021C36.5017 35.0965 36.6371 35.001 36.7759 34.9155C36.9147 34.83 37.063 34.754 37.2208 34.6875L37.399 33.8167C37.4253 33.7243 37.4684 33.6483 37.528 33.5887C37.5876 33.529 37.67 33.4995 37.775 33.5H38.725C38.8306 33.5 38.9132 33.5298 38.9728 33.5895C39.0324 33.6491 39.0752 33.7248 39.101 33.8167L39.2792 34.6875C39.4375 34.7535 39.5861 34.826 39.7249 34.9052C39.8637 34.9844 39.9988 35.0767 40.1302 35.1823L40.9615 34.8854C41.0538 34.859 41.143 34.8625 41.229 34.8957C41.3151 34.929 41.3842 34.9849 41.4365 35.0635L41.9115 35.875C41.9642 35.9542 41.9809 36.0399 41.9613 36.1323C41.9418 36.2247 41.8988 36.3038 41.8323 36.3698L41.1792 36.9438C41.2056 37.1417 41.2188 37.31 41.2188 37.4488C41.2188 37.5876 41.2056 37.7557 41.1792 37.9531L41.8323 38.5271C41.8983 38.5931 41.9413 38.6722 41.9613 38.7646C41.9814 38.8569 41.9648 38.9427 41.9115 39.0219L41.4365 39.8333C41.3837 39.9125 41.3177 39.9687 41.2385 40.002C41.1594 40.0352 41.0736 40.0384 40.9813 40.0115L40.1302 39.7344C39.9983 39.8399 39.8632 39.9323 39.7249 40.0115C39.5866 40.0906 39.438 40.1632 39.2792 40.2292L39.101 41.1C39.0747 41.1924 39.0316 41.2684 38.972 41.328C38.9124 41.3876 38.83 41.4172 38.725 41.4167H37.775ZM38.25 39.0417C38.6854 39.0417 39.0583 38.8865 39.3686 38.5762C39.679 38.2658 39.8339 37.8932 39.8333 37.4583C39.8333 37.0229 39.6782 36.65 39.3678 36.3397C39.0575 36.0294 38.6849 35.8745 38.25 35.875C37.8146 35.875 37.4417 36.0302 37.1314 36.3405C36.821 36.6508 36.6661 37.0234 36.6667 37.4583C36.6667 37.8938 36.8218 38.2666 37.1322 38.577C37.4425 38.8873 37.8151 39.0422 38.25 39.0417ZM32.7083 34.2917C32.9326 34.2917 33.1208 34.2157 33.2728 34.0637C33.4248 33.9117 33.5005 33.7238 33.5 33.5C33.5 33.2757 33.424 33.0875 33.272 32.9355C33.12 32.7835 32.9321 32.7078 32.7083 32.7083C32.484 32.7083 32.2959 32.7843 32.1439 32.9363C31.9919 33.0883 31.9161 33.2762 31.9167 33.5C31.9167 33.7243 31.9927 33.9125 32.1447 34.0645C32.2967 34.2165 32.4846 34.2922 32.7083 34.2917ZM27.1667 40.625C26.9424 40.625 26.7542 40.549 26.6022 40.397C26.4502 40.245 26.3745 40.0571 26.375 39.8333C26.375 39.609 26.451 39.4209 26.603 39.2689C26.755 39.1169 26.9429 39.0411 27.1667 39.0417H27.9583V27.1667C27.9583 26.9424 28.0343 26.7542 28.1863 26.6022C28.3383 26.4502 28.5262 26.3745 28.75 26.375H35.0833C35.3076 26.375 35.4958 26.451 35.6478 26.603C35.7998 26.755 35.8755 26.9429 35.875 27.1667H38.25C38.4743 27.1667 38.6625 27.2427 38.8145 27.3947C38.9665 27.5467 39.0422 27.7346 39.0417 27.9583V31.9167H37.4583V28.75H35.875V32.451C35.6243 32.5698 35.3504 32.7316 35.0533 32.9363C34.7561 33.1411 34.5023 33.3554 34.2917 33.5792C33.7903 34.1333 33.401 34.7305 33.124 35.3707C32.8469 36.0109 32.7083 36.7068 32.7083 37.4583C32.7083 37.7618 32.7316 38.0555 32.778 38.3395C32.8244 38.6234 32.8804 38.8575 32.9458 39.0417C33.0382 39.3451 33.1472 39.6288 33.2728 39.8927C33.3984 40.1566 33.5401 40.4007 33.6979 40.625H27.1667Z" fill="white"/>
<rect x="2" y="2" width="63" height="63" rx="31.5" stroke="#BFDBFE" stroke-width="4"/>
</svg>
