<svg width="67" height="66" viewBox="0 0 67 66" fill="none" xmlns="http://www.w3.org/2000/svg">
<rect x="2.7998" y="2" width="62" height="62" rx="31" fill="#52525B"/>
<path d="M25.7998 42C25.5165 42 25.2788 41.904 25.0868 41.712C24.8948 41.52 24.7991 41.2827 24.7998 41C24.7998 40.7167 24.8958 40.479 25.0878 40.287C25.2798 40.095 25.5171 39.9993 25.7998 40H26.7998V25C26.7998 24.7167 26.8958 24.479 27.0878 24.287C27.2798 24.095 27.5171 23.9993 27.7998 24H34.7998C35.0831 24 35.3208 24.096 35.5128 24.288C35.7048 24.48 35.8005 24.7173 35.7998 25H39.7998C40.0831 25 40.3208 25.096 40.5128 25.288C40.7048 25.48 40.8005 25.7173 40.7998 26V40H41.7998C42.0831 40 42.3208 40.096 42.5128 40.288C42.7048 40.48 42.8005 40.7173 42.7998 41C42.7998 41.2833 42.7038 41.521 42.5118 41.713C42.3198 41.905 42.0825 42.0007 41.7998 42H39.7998C39.5165 42 39.2788 41.904 39.0868 41.712C38.8948 41.52 38.7991 41.2827 38.7998 41V27H35.7998V41C35.7998 41.2833 35.7038 41.521 35.5118 41.713C35.3198 41.905 35.0825 42.0007 34.7998 42H25.7998ZM33.7998 33C33.7998 32.7167 33.7038 32.479 33.5118 32.287C33.3198 32.095 33.0825 31.9993 32.7998 32C32.5165 32 32.2788 32.096 32.0868 32.288C31.8948 32.48 31.7991 32.7173 31.7998 33C31.7998 33.2833 31.8958 33.521 32.0878 33.713C32.2798 33.905 32.5171 34.0007 32.7998 34C33.0831 34 33.3208 33.904 33.5128 33.712C33.7048 33.52 33.8005 33.2827 33.7998 33Z" fill="white"/>
<rect x="2.7998" y="2" width="62" height="62" rx="31" stroke="#D4D4D8" stroke-width="4"/>
</svg>
