<svg width="83" height="75" viewBox="0 0 83 75" fill="none" xmlns="http://www.w3.org/2000/svg">
<path d="M49.462 37.5L56.9911 33.7727H82.0757L78.3484 26.3182H63.5511L72.4593 14.5027L68.7693 7.04817L53.6366 27.0636L46.1075 30.8282L47.5984 22.5909L62.8057 2.53817L54.643 1.04726L41.0757 18.8636L27.6575 0.972717L19.4575 2.46363L34.5902 22.5909L36.0811 30.8282L29.223 27.3991L28.6266 27.1009L13.4939 6.93635L9.76659 14.3909L18.712 26.3182H3.80296L0.0756836 33.7727H25.3093L32.6893 37.5L25.1602 41.2273H0.0756836L3.80296 48.6818H18.6002L9.69205 60.4973L13.382 67.9518L28.5148 47.9364L36.0439 44.1718L34.553 52.4091L19.3457 72.4618L27.5084 73.99L41.0757 56.1364L54.4939 74.0273L62.6939 72.5363L47.5611 52.4091L46.0702 44.1718L53.5248 47.8991L68.6575 68.0636L72.3848 60.6091L63.4393 48.6818H78.3484L82.0757 41.2273H56.842" fill="#252525"/>
</svg>
