<svg width="34" height="30" viewBox="0 0 34 30" fill="none" xmlns="http://www.w3.org/2000/svg">
<mask id="path-1-inside-1_422_879" fill="white">
<path d="M20.374 15L23.404 13.5H33.499L31.999 10.5H26.044L29.629 5.74505L28.144 2.74505L22.054 10.8L19.024 12.315L19.624 9.00005L25.744 0.930049L22.459 0.330049L16.999 7.50005L11.599 0.300049L8.29902 0.900049L14.389 9.00005L14.989 12.315L12.229 10.935L11.989 10.815L5.89902 2.70005L4.39902 5.70005L7.99902 10.5H1.99902L0.499023 13.5H10.654L13.624 15L10.594 16.5H0.499023L1.99902 19.5H7.95402L4.36902 24.255L5.85402 27.255L11.944 19.2001L14.974 17.685L14.374 21L8.25402 29.07L11.539 29.685L16.999 22.5L22.399 29.7L25.699 29.1L19.609 21L19.009 17.685L22.009 19.185L28.099 27.3L29.599 24.3L25.999 19.5H31.999L33.499 16.5H23.344"/>
</mask>
<path d="M20.374 15L23.404 13.5H33.499L31.999 10.5H26.044L29.629 5.74505L28.144 2.74505L22.054 10.8L19.024 12.315L19.624 9.00005L25.744 0.930049L22.459 0.330049L16.999 7.50005L11.599 0.300049L8.29902 0.900049L14.389 9.00005L14.989 12.315L12.229 10.935L11.989 10.815L5.89902 2.70005L4.39902 5.70005L7.99902 10.5H1.99902L0.499023 13.5H10.654L13.624 15L10.594 16.5H0.499023L1.99902 19.5H7.95402L4.36902 24.255L5.85402 27.255L11.944 19.2001L14.974 17.685L14.374 21L8.25402 29.07L11.539 29.685L16.999 22.5L22.399 29.7L25.699 29.1L19.609 21L19.009 17.685L22.009 19.185L28.099 27.3L29.599 24.3L25.999 19.5H31.999L33.499 16.5H23.344" fill="white" fill-opacity="0.6"/>
<path d="M23.404 13.5V13.3H23.3572L23.3153 13.3208L23.404 13.5ZM33.499 13.5V13.7H33.8226L33.6779 13.4106L33.499 13.5ZM31.999 10.5L32.1779 10.4106L32.1226 10.3H31.999V10.5ZM26.044 10.5L25.8843 10.3796L25.6428 10.7H26.044V10.5ZM29.629 5.74505L29.7887 5.86545L29.863 5.76692L29.8083 5.65632L29.629 5.74505ZM28.144 2.74505L28.3233 2.65632L28.1797 2.36626L27.9845 2.62443L28.144 2.74505ZM22.054 10.8L22.1435 10.9789L22.1853 10.958L22.2136 10.9207L22.054 10.8ZM19.024 12.315L18.8272 12.2794L18.7561 12.6726L19.1135 12.4939L19.024 12.315ZM19.624 9.00005L19.4647 8.8792L19.4357 8.91733L19.4272 8.96443L19.624 9.00005ZM25.744 0.930049L25.9034 1.0509L26.0999 0.791743L25.78 0.733303L25.744 0.930049ZM22.459 0.330049L22.495 0.133304L22.3742 0.111256L22.2999 0.20888L22.459 0.330049ZM16.999 7.50005L16.839 7.62005L16.9978 7.83176L17.1581 7.62122L16.999 7.50005ZM11.599 0.300049L11.759 0.180049L11.6849 0.0811634L11.5632 0.103275L11.599 0.300049ZM8.29902 0.900049L8.26325 0.703275L7.94444 0.76124L8.13917 1.02024L8.29902 0.900049ZM14.389 9.00005L14.5858 8.96443L14.5774 8.91776L14.5489 8.87986L14.389 9.00005ZM14.989 12.315L14.8996 12.4939L15.257 12.6726L15.1858 12.2794L14.989 12.315ZM11.989 10.815L11.8291 10.9351L11.8574 10.9728L11.8996 10.9939L11.989 10.815ZM5.89902 2.70005L6.05899 2.58L5.86481 2.32126L5.72014 2.61061L5.89902 2.70005ZM4.39902 5.70005L4.22014 5.61061L4.16486 5.72116L4.23902 5.82005L4.39902 5.70005ZM7.99902 10.5V10.7H8.39902L8.15902 10.38L7.99902 10.5ZM1.99902 10.5V10.3H1.87542L1.82014 10.4106L1.99902 10.5ZM0.499023 13.5L0.320138 13.4106L0.175417 13.7H0.499023V13.5ZM10.654 13.5L10.7442 13.3215L10.7017 13.3H10.654V13.5ZM13.624 15L13.7128 15.1793L14.0712 15.0018L13.7142 14.8215L13.624 15ZM10.594 16.5V16.7H10.6408L10.6828 16.6793L10.594 16.5ZM0.499023 16.5V16.3H0.175417L0.320138 16.5895L0.499023 16.5ZM1.99902 19.5L1.82014 19.5895L1.87542 19.7H1.99902V19.5ZM7.95402 19.5L8.11372 19.6205L8.35529 19.3H7.95402V19.5ZM4.36902 24.255L4.20933 24.1346L4.13504 24.2332L4.18978 24.3438L4.36902 24.255ZM5.85402 27.255L5.67478 27.3438L5.81836 27.6338L6.01356 27.3757L5.85402 27.255ZM11.944 19.2001L11.8546 19.0212L11.8127 19.0421L11.7845 19.0794L11.944 19.2001ZM14.974 17.685L15.1708 17.7207L15.242 17.3275L14.8846 17.5062L14.974 17.685ZM14.374 21L14.5334 21.1209L14.5623 21.0828L14.5708 21.0357L14.374 21ZM8.25402 29.07L8.09467 28.9492L7.8991 29.2071L8.21722 29.2666L8.25402 29.07ZM11.539 29.685L11.5022 29.8816L11.6236 29.9044L11.6983 29.8061L11.539 29.685ZM16.999 22.5L17.159 22.38L17.0001 22.1681L16.8398 22.379L16.999 22.5ZM22.399 29.7L22.239 29.82L22.3132 29.9189L22.4348 29.8968L22.399 29.7ZM25.699 29.1L25.7348 29.2968L26.0536 29.2389L25.8589 28.9799L25.699 29.1ZM19.609 21L19.4122 21.0357L19.4207 21.0823L19.4492 21.1202L19.609 21ZM19.009 17.685L19.0985 17.5062L18.7411 17.3275L18.8122 17.7207L19.009 17.685ZM22.009 19.185L22.169 19.065L22.1407 19.0273L22.0985 19.0062L22.009 19.185ZM28.099 27.3L27.9391 27.4201L28.1332 27.6788L28.2779 27.3895L28.099 27.3ZM29.599 24.3L29.7779 24.3895L29.8332 24.2789L29.759 24.18L29.599 24.3ZM25.999 19.5V19.3H25.599L25.839 19.62L25.999 19.5ZM31.999 19.5V19.7H32.1226L32.1779 19.5895L31.999 19.5ZM33.499 16.5L33.6779 16.5895L33.8226 16.3H33.499V16.5ZM20.4628 15.1793L23.4928 13.6793L23.3153 13.3208L20.2853 14.8208L20.4628 15.1793ZM23.404 13.7H33.499V13.3H23.404V13.7ZM33.6779 13.4106L32.1779 10.4106L31.8201 10.5895L33.3201 13.5895L33.6779 13.4106ZM31.999 10.3H26.044V10.7H31.999V10.3ZM26.2037 10.6205L29.7887 5.86545L29.4693 5.62465L25.8843 10.3796L26.2037 10.6205ZM29.8083 5.65632L28.3233 2.65632L27.9648 2.83377L29.4498 5.83377L29.8083 5.65632ZM27.9845 2.62443L21.8945 10.6794L22.2136 10.9207L28.3036 2.86567L27.9845 2.62443ZM21.9646 10.6212L18.9346 12.1362L19.1135 12.4939L22.1435 10.9789L21.9646 10.6212ZM19.2208 12.3507L19.8208 9.03567L19.4272 8.96443L18.8272 12.2794L19.2208 12.3507ZM19.7834 9.1209L25.9034 1.0509L25.5847 0.809197L19.4647 8.8792L19.7834 9.1209ZM25.78 0.733303L22.495 0.133304L22.4231 0.526794L25.7081 1.12679L25.78 0.733303ZM22.2999 0.20888L16.8399 7.37888L17.1581 7.62122L22.6181 0.451217L22.2999 0.20888ZM17.159 7.38005L11.759 0.180049L11.439 0.420049L16.839 7.62005L17.159 7.38005ZM11.5632 0.103275L8.26325 0.703275L8.3348 1.09682L11.6348 0.496823L11.5632 0.103275ZM8.13917 1.02024L14.2292 9.12024L14.5489 8.87986L8.45888 0.779859L8.13917 1.02024ZM14.1922 9.03567L14.7922 12.3507L15.1858 12.2794L14.5858 8.96443L14.1922 9.03567ZM15.0785 12.1362L12.3185 10.7562L12.1396 11.1139L14.8996 12.4939L15.0785 12.1362ZM12.3185 10.7562L12.0785 10.6362L11.8996 10.9939L12.1396 11.1139L12.3185 10.7562ZM12.149 10.695L6.05899 2.58L5.73906 2.8201L11.8291 10.9351L12.149 10.695ZM5.72014 2.61061L4.22014 5.61061L4.57791 5.78949L6.07791 2.78949L5.72014 2.61061ZM4.23902 5.82005L7.83902 10.62L8.15902 10.38L4.55902 5.58005L4.23902 5.82005ZM7.99902 10.3H1.99902V10.7H7.99902V10.3ZM1.82014 10.4106L0.320138 13.4106L0.677909 13.5895L2.17791 10.5895L1.82014 10.4106ZM0.499023 13.7H10.654V13.3H0.499023V13.7ZM10.5639 13.6786L13.5339 15.1786L13.7142 14.8215L10.7442 13.3215L10.5639 13.6786ZM13.5353 14.8208L10.5053 16.3208L10.6828 16.6793L13.7128 15.1793L13.5353 14.8208ZM10.594 16.3H0.499023V16.7H10.594V16.3ZM0.320138 16.5895L1.82014 19.5895L2.17791 19.4106L0.677909 16.4106L0.320138 16.5895ZM1.99902 19.7H7.95402V19.3H1.99902V19.7ZM7.79433 19.3796L4.20933 24.1346L4.52872 24.3755L8.11372 19.6205L7.79433 19.3796ZM4.18978 24.3438L5.67478 27.3438L6.03327 27.1663L4.54827 24.1663L4.18978 24.3438ZM6.01356 27.3757L12.1036 19.3207L11.7845 19.0794L5.69449 27.1344L6.01356 27.3757ZM12.0335 19.3789L15.0635 17.8639L14.8846 17.5062L11.8546 19.0212L12.0335 19.3789ZM14.7772 17.6494L14.1772 20.9644L14.5708 21.0357L15.1708 17.7207L14.7772 17.6494ZM14.2147 20.8792L8.09467 28.9492L8.41338 29.1909L14.5334 21.1209L14.2147 20.8792ZM8.21722 29.2666L11.5022 29.8816L11.5758 29.4885L8.29083 28.8735L8.21722 29.2666ZM11.6983 29.8061L17.1583 22.6211L16.8398 22.379L11.3798 29.564L11.6983 29.8061ZM16.839 22.62L22.239 29.82L22.559 29.58L17.159 22.38L16.839 22.62ZM22.4348 29.8968L25.7348 29.2968L25.6632 28.9033L22.3632 29.5033L22.4348 29.8968ZM25.8589 28.9799L19.7689 20.8799L19.4492 21.1202L25.5392 29.2202L25.8589 28.9799ZM19.8058 20.9644L19.2058 17.6494L18.8122 17.7207L19.4122 21.0357L19.8058 20.9644ZM18.9196 17.8639L21.9196 19.3639L22.0985 19.0062L19.0985 17.5062L18.9196 17.8639ZM21.8491 19.3051L27.9391 27.4201L28.259 27.18L22.169 19.065L21.8491 19.3051ZM28.2779 27.3895L29.7779 24.3895L29.4201 24.2106L27.9201 27.2106L28.2779 27.3895ZM29.759 24.18L26.159 19.38L25.839 19.62L29.439 24.42L29.759 24.18ZM25.999 19.7H31.999V19.3H25.999V19.7ZM32.1779 19.5895L33.6779 16.5895L33.3201 16.4106L31.8201 19.4106L32.1779 19.5895ZM33.499 16.3H23.344V16.7H33.499V16.3Z" fill="white" fill-opacity="0.6" mask="url(#path-1-inside-1_422_879)"/>
</svg>
