<svg width="118" height="105" viewBox="0 0 118 105" fill="none" xmlns="http://www.w3.org/2000/svg">
<path d="M70.9999 52.2667L81.7733 46.9333H117.667L112.333 36.2667H91.1599L103.907 19.36L98.6266 8.69333L76.9733 37.3333L66.1999 42.72L68.3333 30.9333L90.0933 2.24L78.4133 0.106667L58.9999 25.6L39.7999 0L28.0666 2.13333L49.7199 30.9333L51.8533 42.72L42.0399 37.8133L41.1866 37.3867L19.5333 8.53333L14.1999 19.2L26.9999 36.2667H5.66659L0.333252 46.9333H36.4399L46.9999 52.2667L36.2266 57.6H0.333252L5.66659 68.2667H26.8399L14.0933 85.1733L19.3733 95.84L41.0266 67.2L51.7999 61.8133L49.6666 73.6L27.9066 102.293L39.5866 104.48L58.9999 78.9333L78.1999 104.533L89.9333 102.4L68.2799 73.6L66.1466 61.8133L76.8133 67.1467L98.4666 96L103.8 85.3333L90.9999 68.2667H112.333L117.667 57.6H81.5599" fill="white"/>
</svg>
